<svg width="82" height="83" viewBox="0 0 82 83" fill="none" xmlns="http://www.w3.org/2000/svg">
<g filter="url(#filter0_d_1_1423)">
<circle cx="43" cy="40" r="35" fill="url(#paint0_linear_1_1423)"/>
<circle cx="43" cy="40" r="29" fill="url(#paint1_linear_1_1423)"/>
<circle cx="43" cy="40" r="35" fill="#FF9255"/>
<circle cx="43" cy="40" r="29" fill="url(#paint2_linear_1_1423)"/>
<mask id="mask0_1_1423" style="mask-type:alpha" maskUnits="userSpaceOnUse" x="8" y="5" width="70" height="70">
<circle cx="43" cy="40" r="35" fill="url(#paint3_linear_1_1423)"/>
</mask>
<g mask="url(#mask0_1_1423)">
<path d="M50.5 43.0259C69.3 21.0259 88 20.5259 95 23.0259L106.5 34.0259L96.5 81.5259L24 104.026L-16.5 85.5259L-21 41.5259C-5 51.1925 31.7 65.0259 50.5 43.0259Z" fill="url(#paint4_linear_1_1423)"/>
<path d="M40 39.9827C-1.19673 15 -13.3329 22.5952 -19.5717 26.6358L-28.2385 39.9827L-7.59815 83.917L68.1312 89.1674L103.301 61.8617L97.5766 18.0041C84.224 31.0866 66.2297 55.8889 40 39.9827Z" fill="url(#paint5_linear_1_1423)"/>
</g>
</g>
<defs>
<filter id="filter0_d_1_1423" x="0" y="0" width="82" height="82" filterUnits="userSpaceOnUse" color-interpolation-filters="sRGB">
<feFlood flood-opacity="0" result="BackgroundImageFix"/>
<feColorMatrix in="SourceAlpha" type="matrix" values="0 0 0 0 0 0 0 0 0 0 0 0 0 0 0 0 0 0 127 0" result="hardAlpha"/>
<feOffset dx="-2" dy="1"/>
<feGaussianBlur stdDeviation="3"/>
<feColorMatrix type="matrix" values="0 0 0 0 0 0 0 0 0 0 0 0 0 0 0 0 0 0 0.25 0"/>
<feBlend mode="normal" in2="BackgroundImageFix" result="effect1_dropShadow_1_1423"/>
<feBlend mode="normal" in="SourceGraphic" in2="effect1_dropShadow_1_1423" result="shape"/>
</filter>
<linearGradient id="paint0_linear_1_1423" x1="43" y1="5" x2="43" y2="75" gradientUnits="userSpaceOnUse">
<stop stop-color="#FFC123"/>
<stop offset="1" stop-color="#F8832E"/>
</linearGradient>
<linearGradient id="paint1_linear_1_1423" x1="43" y1="11" x2="43" y2="69" gradientUnits="userSpaceOnUse">
<stop stop-color="#FFBF24"/>
<stop offset="1" stop-color="#F4924B"/>
</linearGradient>
<linearGradient id="paint2_linear_1_1423" x1="43" y1="11" x2="43" y2="69" gradientUnits="userSpaceOnUse">
<stop stop-color="#FFBF24"/>
<stop offset="1" stop-color="#F4924B"/>
</linearGradient>
<linearGradient id="paint3_linear_1_1423" x1="43" y1="5" x2="43" y2="75" gradientUnits="userSpaceOnUse">
<stop stop-color="#FFC123"/>
<stop offset="1" stop-color="#F8832E"/>
</linearGradient>
<linearGradient id="paint4_linear_1_1423" x1="42.75" y1="22" x2="42.75" y2="104.026" gradientUnits="userSpaceOnUse">
<stop stop-color="#FF9D55" stop-opacity="0.6"/>
<stop offset="1" stop-color="#FD8A37" stop-opacity="0"/>
</linearGradient>
<linearGradient id="paint5_linear_1_1423" x1="31.0465" y1="13.6391" x2="49.8823" y2="93.473" gradientUnits="userSpaceOnUse">
<stop stop-color="#FFBD3E" stop-opacity="0.49"/>
<stop offset="1" stop-color="white" stop-opacity="0"/>
</linearGradient>
</defs>
</svg>
